<svg width="24" height="24" viewBox="0 0 24 24" fill="none" xmlns="http://www.w3.org/2000/svg">
<path d="M3.34487 21.6009L1.41901 0H22.581L20.6531 21.5975L11.9871 24L3.34487 21.6009Z" fill="#264DE4"/>
<path d="M19.0026 20.2222L20.6501 1.76614H12V22.1636L19.0026 20.2222Z" fill="#2965F1"/>
<path d="M5.83407 9.77767L6.0715 12.4269H12V9.77767H5.83407ZM5.59778 7.06478H12V4.4155H5.35693L5.59778 7.06478ZM12 16.6581L11.9884 16.6612L9.03789 15.8645L8.84931 13.7515H6.18981L6.56101 17.9113L11.9878 19.4178L12 19.4144V16.6581Z" fill="#EBEBEB"/>
<path d="M11.9908 9.77767V12.4269H15.2531L14.9456 15.8628L11.9908 16.6603V19.4165L17.422 17.9113L17.4618 17.4637L18.0843 10.489L18.149 9.77767L18.6273 4.4155H11.9908V7.06478H15.7239L15.4828 9.77767H11.9908Z" fill="white"/>
</svg>
