<svg width="24" height="24" viewBox="0 0 24 24" fill="none" xmlns="http://www.w3.org/2000/svg">
<g clip-path="url(#clip0_130_106)">
<g clip-path="url(#clip1_130_106)">
<path d="M13.5 10.4632H15.8162ZM10.7427 10.4632H13.0588ZM8.04045 10.4632H10.3566ZM5.33824 10.4632H7.59927ZM2.58089 10.4632H4.89706ZM5.33824 7.92647H7.59927ZM8.04045 7.92647H10.3566ZM10.7427 7.92647H13.0588ZM10.7427 5.38971H13.0588Z" fill="black"/>
<path d="M13.5 10.4632H15.8162M10.7427 10.4632H13.0588M8.04045 10.4632H10.3566M5.33824 10.4632H7.59927M2.58089 10.4632H4.89706M5.33824 7.92647H7.59927M8.04045 7.92647H10.3566M10.7427 7.92647H13.0588M10.7427 5.38971H13.0588" stroke="#0091E2" stroke-width="1.48438"/>
<path d="M23.2059 10.5736C23.2059 10.5736 22.2132 9.63606 20.1728 9.96694C19.9522 8.36767 18.2426 7.43018 18.2426 7.43018C18.2426 7.43018 16.6434 9.36032 17.8015 11.5111C17.4706 11.6765 16.9191 11.8971 16.0919 11.8971H0.926471C0.650736 12.9449 0.650736 19.8934 8.26103 19.8934C13.7206 19.8934 17.8015 17.3566 19.7316 12.7243C22.5993 12.9449 23.2059 10.5736 23.2059 10.5736Z" fill="#0091E2"/>
</g>
</g>
<defs>
<clipPath id="clip0_130_106">
<rect width="24" height="24" fill="white"/>
</clipPath>
<clipPath id="clip1_130_106">
<rect width="24" height="28.2353" fill="white" transform="translate(0 -2)"/>
</clipPath>
</defs>
</svg>
