<svg width="24" height="24" viewBox="0 0 24 24" fill="none" xmlns="http://www.w3.org/2000/svg">
<path d="M23.8699 5.28035H23.4619C22.9574 5.28035 22.4822 5.51555 22.1755 5.91587L17.9995 11.3768L13.8235 5.91587C13.5178 5.51555 13.0421 5.28035 12.5381 5.28035H12.1301L17.3962 12.1664L12.0173 19.2003H12.4253C12.9298 19.2003 13.405 18.9651 13.7112 18.5648L18 12.9565L22.2888 18.5648C22.595 18.9651 23.0702 19.2003 23.5747 19.2003H23.9827L18.6038 12.1664L23.8699 5.28035ZM10.2187 16.4365C8.9928 18.2994 6.57936 19.2541 4.272 18.4122C2.24208 17.6715 0.96 15.6536 0.96 13.4927V12.9603H6.72H12V10.976C12 7.85363 9.68736 5.12003 6.5784 4.82771C3.01104 4.49219 0 7.30115 0 10.8003V13.4754C0 16.0535 1.5432 18.4501 3.96912 19.3232C7.13856 20.4637 10.4722 18.7616 11.5992 15.8403H11.293C10.8557 15.8403 10.4587 16.0712 10.2187 16.4365ZM0.96 10.8003C0.96 8.02115 3.2208 5.76035 6 5.76035C8.7792 5.76035 11.04 8.02115 11.04 10.8003V12.0003H0.96V10.8003Z" fill="white"/>
</svg>
