<svg width="24" height="24" viewBox="0 0 24 24" fill="none" xmlns="http://www.w3.org/2000/svg">
<g clip-path="url(#clip0_130_93)">
<mask id="mask0_130_93" style="mask-type:luminance" maskUnits="userSpaceOnUse" x="0" y="0" width="24" height="24">
<path d="M0 0.02948H23.9705V24H0V0.02948Z" fill="white"/>
</mask>
<g mask="url(#mask0_130_93)">
<path d="M23.5191 10.9474L13.053 0.482068C12.9097 0.338605 12.7394 0.224799 12.5521 0.147153C12.3647 0.0695061 12.1639 0.029541 11.961 0.029541C11.7582 0.029541 11.5574 0.0695061 11.37 0.147153C11.1826 0.224799 11.0124 0.338605 10.869 0.482068L8.69652 2.65563L11.4529 5.41198C11.7769 5.30193 12.1253 5.28475 12.4586 5.36238C12.7919 5.44002 13.0969 5.60937 13.339 5.85129C13.5824 6.09496 13.7523 6.40222 13.8293 6.73793C13.9063 7.07364 13.8872 7.42424 13.7743 7.74963L16.4318 10.4063C16.7573 10.2933 17.108 10.2742 17.4439 10.3514C17.7797 10.4285 18.0869 10.5987 18.3304 10.8425C18.501 11.013 18.6363 11.2155 18.7286 11.4384C18.8209 11.6612 18.8685 11.9 18.8685 12.1412C18.8685 12.3824 18.8209 12.6213 18.7286 12.8441C18.6363 13.067 18.501 13.2694 18.3304 13.44C17.9856 13.7845 17.5181 13.978 17.0306 13.978C16.5432 13.978 16.0757 13.7845 15.7309 13.44C15.4747 13.1834 15.3002 12.8567 15.2292 12.5012C15.1583 12.1456 15.1941 11.777 15.3323 11.4417L12.854 8.96424V15.4852C13.1156 15.6144 13.3426 15.8041 13.5163 16.0385C13.69 16.2729 13.8053 16.5454 13.8527 16.8332C13.9001 17.1211 13.8783 17.4161 13.789 17.6939C13.6997 17.9716 13.5455 18.2241 13.3392 18.4304C13.1687 18.601 12.9662 18.7363 12.7434 18.8286C12.5205 18.9209 12.2817 18.9684 12.0405 18.9684C11.7993 18.9684 11.5604 18.9209 11.3376 18.8286C11.1147 18.7363 10.9123 18.601 10.7417 18.4304C10.5711 18.2599 10.4358 18.0574 10.3434 17.8345C10.2511 17.6117 10.2036 17.3728 10.2036 17.1315C10.2036 16.8903 10.2511 16.6514 10.3434 16.4286C10.4358 16.2057 10.5711 16.0032 10.7417 15.8327C10.9136 15.6605 11.1179 15.524 11.3428 15.4312V8.85024C11.1188 8.75799 10.9153 8.62239 10.7438 8.45123C10.5724 8.28008 10.4365 8.07674 10.3439 7.8529C10.2513 7.62907 10.2039 7.38914 10.2043 7.1469C10.2047 6.90467 10.2529 6.6649 10.3463 6.44137L7.62852 3.72311L0.451473 10.8983C0.162262 11.1881 -0.000167847 11.5808 -0.000167847 11.9902C-0.000167847 12.3996 0.162262 12.7923 0.451473 13.0821L10.9181 23.5487C11.2079 23.8378 11.6005 24.0002 12.0098 24.0002C12.4192 24.0002 12.8118 23.8378 13.1016 23.5487L23.5191 13.1311C23.8083 12.8413 23.9708 12.4487 23.9708 12.0392C23.9708 11.6298 23.8083 11.2372 23.5191 10.9474Z" fill="#F03C2E"/>
</g>
</g>
<defs>
<clipPath id="clip0_130_93">
<rect width="24" height="24" fill="white"/>
</clipPath>
</defs>
</svg>
