<svg width="24" height="24" viewBox="0 0 24 24" fill="none" xmlns="http://www.w3.org/2000/svg">
<path d="M3.32812 21.5625L1.40625 0H22.5469L20.625 21.5625L11.9531 24" fill="#E34F26"/>
<path d="M12 22.125L18.9844 20.2031L20.625 1.73438H12" fill="#EF652A"/>
<path d="M12 9.75H8.48438L8.25 7.03125H12V4.40625H11.9531H5.34375L5.39062 5.10938L6.04688 12.4219H12V9.75ZM12 16.6406H11.9531L9 15.8438L8.8125 13.7344H7.40625H6.1875L6.51562 17.9062L11.9531 19.4062H12V16.6406Z" fill="#EBEBEB"/>
<path d="M11.9531 9.75V12.4219H15.2344L14.9062 15.8438L11.9531 16.6406V19.4062L17.3906 17.9062L17.4375 17.4375L18.0469 10.4531L18.1406 9.75H17.3906H11.9531ZM11.9531 4.40625V6.04688V7.03125H18.375L18.4219 6.46875L18.5625 5.10938L18.6094 4.40625H11.9531Z" fill="white"/>
</svg>
