<svg width="24" height="27" viewBox="0 0 24 27" fill="none" xmlns="http://www.w3.org/2000/svg">
<g clip-path="url(#clip0_120_84)">
<path d="M22.4974 13.0503C22.4974 11.6877 21.3929 10.5832 20.0303 10.5832C19.9426 10.5832 19.8562 10.5879 19.771 10.5968L23.1596 0.602539H8.7592L12.143 10.5881C12.0934 10.5851 12.0435 10.5832 11.9931 10.5832C10.6305 10.5832 9.52599 11.6877 9.52599 13.0503C9.52599 14.1517 10.2478 15.0841 11.244 15.4014C10.7178 16.3128 10.0558 17.1337 9.30408 17.8428C8.28192 18.8071 7.11211 19.5383 5.84695 19.9888C4.34058 19.215 3.6292 17.4939 4.27111 15.985C4.34358 15.8147 4.41755 15.6419 4.48833 15.47C5.57958 15.2153 6.39277 14.2369 6.39277 13.068C6.39277 11.7054 5.28821 10.6009 3.92564 10.6009C2.56299 10.6009 1.45842 11.7054 1.45842 13.068C1.45842 13.9036 1.8742 14.6415 2.50964 15.0879C1.89895 16.4783 1.00139 17.9333 0.721736 19.6196C0.38658 21.6408 0.720705 23.7862 2.46867 24.9977C6.53967 27.8192 10.9587 23.2486 15.618 22.0996C17.3065 21.6832 19.16 21.7503 20.6477 20.8886C21.765 20.2416 22.5015 19.1693 22.7105 17.9653C22.917 16.776 22.6159 15.5919 21.9237 14.6317C22.2817 14.2034 22.4974 13.6522 22.4974 13.0503ZM14.46 13.059C14.46 13.0561 14.4603 13.0532 14.4603 13.0503C14.4603 12.1555 13.9839 11.372 13.271 10.9395L15.9643 5.49348L18.6622 10.9973C17.9997 11.4396 17.5631 12.1939 17.5631 13.0503C17.5631 13.0683 17.5641 13.086 17.5645 13.1039L14.46 13.059Z" fill="#C63D14"/>
<path d="M23.0999 13.0503C23.0999 11.5517 22.0202 10.3012 20.5979 10.0342L24 0H7.91869L11.3259 10.0545C9.95316 10.36 8.92341 11.5868 8.92341 13.0503C8.92341 14.1493 9.50419 15.1147 10.3747 15.6571C9.95597 16.2808 9.45947 16.8678 8.8905 17.4045C7.98825 18.2557 6.98297 18.9013 5.89922 19.326C4.80769 18.6403 4.34625 17.3473 4.8255 16.2208L4.863 16.1327C4.88644 16.0776 4.90997 16.0222 4.93341 15.9669C6.13228 15.5489 6.99525 14.4077 6.99525 13.068C6.99525 11.3753 5.61816 9.99834 3.9255 9.99834C2.23285 9.99834 0.855847 11.3753 0.855847 13.068C0.855847 13.9223 1.20694 14.696 1.77207 15.253C1.6696 15.4715 1.56188 15.6935 1.45116 15.9209C0.93441 16.9822 0.348753 18.1853 0.127222 19.5211C-0.312747 22.1741 0.396847 24.2949 2.12532 25.4929C3.17419 26.2198 4.23928 26.5057 5.31113 26.5057C7.32947 26.5056 9.37107 25.4917 11.3679 24.4998C12.8062 23.7855 14.2932 23.0468 15.7622 22.6846C16.3088 22.5498 16.8712 22.4687 17.4666 22.3828C18.6473 22.2125 19.8683 22.0364 20.9498 21.4101C22.2033 20.684 23.0615 19.466 23.3041 18.0684C23.5124 16.8687 23.2616 15.6672 22.6502 14.6482C22.9353 14.1824 23.0999 13.6353 23.0999 13.0503ZM21.8948 13.0503C21.8948 14.0784 21.0584 14.915 20.0302 14.915C19.0021 14.915 18.1656 14.0784 18.1656 13.0503C18.1656 12.0221 19.0021 11.1857 20.0302 11.1857C21.0584 11.1857 21.8948 12.0221 21.8948 13.0503ZM22.319 1.20506L19.3148 10.0657C19.1845 10.0969 19.0576 10.1363 18.9343 10.1836L15.9666 4.12941L12.9902 10.1478C12.8616 10.1034 12.7292 10.067 12.5934 10.04L9.59953 1.20506H22.319ZM11.9931 11.1857C13.0212 11.1857 13.8577 12.0221 13.8577 13.0503C13.8577 14.0784 13.0212 14.915 11.9931 14.915C10.965 14.915 10.1285 14.0784 10.1285 13.0503C10.1285 12.0221 10.965 11.1857 11.9931 11.1857ZM3.9255 11.2034C4.95375 11.2034 5.79019 12.0398 5.79019 13.068C5.79019 14.0962 4.95375 14.9327 3.9255 14.9327C2.89744 14.9327 2.06091 14.0962 2.06091 13.068C2.06091 12.0398 2.89744 11.2034 3.9255 11.2034ZM22.1168 17.8623C21.9353 18.9074 21.2898 19.8204 20.3457 20.3672C19.4657 20.8769 18.4111 21.0291 17.2945 21.19C16.6964 21.2763 16.0778 21.3655 15.4736 21.5146C13.8759 21.9085 12.3284 22.6772 10.8319 23.4205C7.83703 24.9081 5.25057 26.1926 2.81185 24.5024C1.02544 23.2643 1.10794 20.9736 1.31607 19.7183C1.50891 18.5553 2.03035 17.4842 2.53463 16.4483C2.62191 16.2691 2.70666 16.0935 2.78982 15.919C3.03994 16.0191 3.30591 16.0872 3.58313 16.1182C3.06985 17.8123 3.87713 19.6543 5.57147 20.5248L5.80332 20.6439L6.04894 20.5565C7.38844 20.0795 8.62266 19.3139 9.71747 18.2811C10.4252 17.6135 11.0333 16.8748 11.5334 16.0855C11.6834 16.1081 11.8369 16.12 11.9931 16.12C13.6857 16.12 15.0628 14.743 15.0628 13.0503C15.0628 12.14 14.6641 11.3213 14.0326 10.7587L15.9618 6.85753L17.9106 10.833C17.3258 11.3923 16.9605 12.1792 16.9605 13.0503C16.9605 14.743 18.3375 16.12 20.0302 16.12C20.6805 16.12 21.2838 15.9162 21.7807 15.5699C22.1257 16.2761 22.2542 17.0708 22.1168 17.8623Z" fill="white"/>
</g>
<defs>
<clipPath id="clip0_120_84">
<rect width="24" height="26.5312" fill="white"/>
</clipPath>
</defs>
</svg>
