<svg width="24" height="24" viewBox="0 0 24 24" fill="none" xmlns="http://www.w3.org/2000/svg">
<g clip-path="url(#clip0_133_13)">
<path fill-rule="evenodd" clip-rule="evenodd" d="M2.66667 24H21.3333C22.8061 24 24 22.8061 24 21.3333V2.66667C24 1.19391 22.8061 0 21.3333 0H2.66667C1.19391 0 0 1.19391 0 2.66667V21.3333C0 22.8061 1.19391 24 2.66667 24Z" fill="#007EBB"/>
<path fill-rule="evenodd" clip-rule="evenodd" d="M20.6667 20.6667H17.1052V14.6007C17.1052 12.9376 16.4733 12.0082 15.1569 12.0082C13.7249 12.0082 12.9767 12.9754 12.9767 14.6007V20.6667H9.54445V9.11112H12.9767V10.6677C12.9767 10.6677 14.0087 8.75808 16.4609 8.75808C18.9119 8.75808 20.6667 10.2548 20.6667 13.3504V20.6667ZM5.44979 7.59801C4.2807 7.59801 3.33334 6.64323 3.33334 5.46568C3.33334 4.28813 4.2807 3.33334 5.44979 3.33334C6.61889 3.33334 7.56568 4.28813 7.56568 5.46568C7.56568 6.64323 6.61889 7.59801 5.44979 7.59801ZM3.67753 20.6667H7.25648V9.11112H3.67753V20.6667Z" fill="white"/>
</g>
<defs>
<clipPath id="clip0_133_13">
<rect width="24" height="24" fill="white"/>
</clipPath>
</defs>
</svg>
