<svg width="25" height="25" viewBox="0 0 25 25" fill="none" xmlns="http://www.w3.org/2000/svg">
<path d="M13 24.7899C12.6584 24.7899 12.3395 24.6988 12.0435 24.5393L9.01449 22.7402C8.55901 22.4896 8.78675 22.3986 8.9234 22.353C9.5383 22.148 9.65217 22.1025 10.2899 21.7381C10.3582 21.6925 10.4493 21.7153 10.5176 21.7609L12.8406 23.1501C12.9317 23.1957 13.0455 23.1957 13.1139 23.1501L22.2008 17.8892C22.2919 17.8437 22.3375 17.7526 22.3375 17.6387V7.13975C22.3375 7.02588 22.2919 6.93478 22.2008 6.88923L13.1139 1.65114C13.0228 1.60559 12.9089 1.60559 12.8406 1.65114L3.75362 6.88923C3.66253 6.93478 3.61698 7.04866 3.61698 7.13975V17.6387C3.61698 17.7298 3.66253 17.8437 3.75362 17.8892L6.23602 19.324C7.57971 20.0072 8.42236 19.2101 8.42236 18.413V8.05073C8.42236 7.91408 8.53623 7.77743 8.69565 7.77743H9.85714C9.99379 7.77743 10.1304 7.89131 10.1304 8.05073V18.413C10.1304 20.2122 9.15114 21.2598 7.44306 21.2598C6.91925 21.2598 6.50932 21.2598 5.34783 20.6905L2.95652 19.324C2.36439 18.9824 2 18.3447 2 17.6615V7.16253C2 6.4793 2.36439 5.84162 2.95652 5.5L12.0435 0.23913C12.6128 -0.0797101 13.3872 -0.0797101 13.9565 0.23913L23.0435 5.5C23.6356 5.84162 24 6.4793 24 7.16253V17.6615C24 18.3447 23.6356 18.9824 23.0435 19.324L13.9565 24.5849C13.6605 24.7215 13.3188 24.7899 13 24.7899ZM15.8012 17.5704C11.8157 17.5704 10.9959 15.7484 10.9959 14.1998C10.9959 14.0631 11.1097 13.9265 11.2692 13.9265H12.4534C12.5901 13.9265 12.7039 14.0176 12.7039 14.1542C12.8861 15.3613 13.4099 15.9534 15.824 15.9534C17.7371 15.9534 18.5569 15.5207 18.5569 14.4959C18.5569 13.9037 18.3292 13.471 15.3458 13.1749C12.8634 12.9244 11.3147 12.3778 11.3147 10.3965C11.3147 8.55176 12.8634 7.45859 15.4596 7.45859C18.3747 7.45859 19.8095 8.46066 19.9917 10.647C19.9917 10.7153 19.9689 10.7836 19.9234 10.852C19.8778 10.8975 19.8095 10.9431 19.7412 10.9431H18.5569C18.4431 10.9431 18.3292 10.852 18.3064 10.7381C18.0331 9.48551 17.3271 9.07557 15.4596 9.07557C13.3644 9.07557 13.1139 9.80435 13.1139 10.3509C13.1139 11.0114 13.4099 11.2164 16.234 11.5807C19.0352 11.9451 20.3561 12.4689 20.3561 14.4275C20.3333 16.4317 18.6936 17.5704 15.8012 17.5704Z" fill="#539E43"/>
</svg>
