<svg width="20" height="24" viewBox="0 0 20 24" fill="none" xmlns="http://www.w3.org/2000/svg">
<g clip-path="url(#clip0_117_23)">
<path fill-rule="evenodd" clip-rule="evenodd" d="M58.0568 14.9152L58.3621 15.7018H59.4643V11.8467C59.4643 11.1568 59.2573 10.6428 58.8434 10.3047C58.4294 9.96672 57.8343 9.79753 57.0581 9.79753C56.2476 9.79753 55.5092 9.97184 54.8434 10.3203L55.3659 11.3862C55.9903 11.1067 56.5337 10.9671 56.996 10.9671C57.5962 10.9671 57.8964 11.2604 57.8964 11.8467V12.1003L56.8925 12.1314C56.0266 12.1624 55.3791 12.3238 54.9493 12.6152C54.52 12.9068 54.3053 13.3596 54.3053 13.9735C54.3053 14.56 54.4648 15.0119 54.7838 15.3293C55.103 15.6467 55.5401 15.8052 56.0957 15.8052C56.5476 15.8052 56.9141 15.7406 57.1951 15.6112C57.4763 15.4818 57.7497 15.25 58.0153 14.9152H58.0568ZM57.2857 13.042L57.8964 13.0214V13.4974C57.8964 13.846 57.7868 14.1254 57.5677 14.3357C57.3488 14.5461 57.0563 14.6514 56.6906 14.6514C56.1801 14.6514 55.9249 14.4288 55.9249 13.9839C55.9249 13.6733 56.0369 13.4424 56.2612 13.2905C56.4854 13.1389 56.8269 13.0559 57.2857 13.042ZM17.4044 18.5849L6.902 21.6911C6.58115 21.7861 6.27364 21.5086 6.34106 21.185L10.093 3.21662C10.1631 2.88079 10.6276 2.82743 10.7741 3.1386L17.721 17.8904C17.852 18.1687 17.7026 18.4968 17.4044 18.5849ZM19.2054 17.8522L11.1619 0.771506V0.771141C11.0619 0.560809 10.9069 0.381443 10.7133 0.252062C10.5197 0.122682 10.2946 0.0481104 10.0621 0.0362544C9.57258 0.00775058 9.13406 0.243821 8.88667 0.645614L0.163043 14.7751C0.0305149 14.9885 -0.0384304 15.2353 -0.0357121 15.4865C-0.0329938 15.7378 0.0412757 15.983 0.178392 16.1935L4.44263 22.7991C4.69679 23.1934 5.13714 23.4216 5.59484 23.4216C5.72457 23.4216 5.85503 23.4033 5.9833 23.3653L18.3613 19.7044C18.5476 19.6498 18.72 19.5559 18.8669 19.4289C19.0138 19.3019 19.1317 19.1449 19.2127 18.9684C19.2927 18.793 19.3334 18.6022 19.3321 18.4094C19.3309 18.2166 19.2876 18.0266 19.2054 17.8522Z" fill="#008ADA"/>
</g>
<defs>
<clipPath id="clip0_117_23">
<rect width="20" height="23.4783" fill="white"/>
</clipPath>
</defs>
</svg>
