<svg width="25" height="23" viewBox="0 0 25 23" fill="none" xmlns="http://www.w3.org/2000/svg">
<g clip-path="url(#clip0_115_8)">
<path d="M12.4998 13.255C13.5936 13.255 14.4804 12.3682 14.4804 11.2743C14.4804 10.1804 13.5936 9.29364 12.4998 9.29364C11.4059 9.29364 10.5191 10.1804 10.5191 11.2743C10.5191 12.3682 11.4059 13.255 12.4998 13.255Z" fill="#61DAFB"/>
<path d="M12.4998 15.3325C18.3695 15.3325 23.1278 13.5157 23.1278 11.2745C23.1278 9.03337 18.3695 7.21655 12.4998 7.21655C6.63008 7.21655 1.87175 9.03337 1.87175 11.2745C1.87175 13.5157 6.63008 15.3325 12.4998 15.3325Z" stroke="#61DAFB"/>
<path d="M8.98546 13.3035C11.9203 18.3868 15.8729 21.5992 17.8138 20.4786C19.7547 19.3581 18.9489 14.3288 16.0141 9.24552C13.0792 4.16221 9.12665 0.949789 7.18575 2.07037C5.24486 3.19094 6.05061 8.22018 8.98546 13.3035Z" stroke="#61DAFB"/>
<path d="M8.98546 9.24553C6.05061 14.3288 5.24486 19.3581 7.18575 20.4787C9.12665 21.5992 13.0792 18.3868 16.0141 13.3035C18.9489 8.2202 19.7547 3.19096 17.8138 2.07038C15.8729 0.949803 11.9203 4.16223 8.98546 9.24553Z" stroke="#61DAFB"/>
</g>
<defs>
<clipPath id="clip0_115_8">
<rect width="25" height="22.2222" fill="white"/>
</clipPath>
</defs>
</svg>
