<svg width="24" height="23" viewBox="0 0 24 23" fill="none" xmlns="http://www.w3.org/2000/svg">
<g clip-path="url(#clip0_120_76)">
<path d="M16.6295 15.914C17.5151 15.8223 18.187 15.0588 18.1565 14.1425C18.126 13.2263 17.3624 12.4932 16.4462 12.4932H16.3852C15.4383 12.5238 14.7053 13.3179 14.7359 14.2647C14.7665 14.7228 14.9497 15.1198 15.2245 15.3947C14.1862 17.4411 12.598 18.9376 10.2158 20.1898C8.59715 21.045 6.91744 21.3505 5.23772 21.1367C3.86334 20.9534 2.79441 20.3427 2.12241 19.3347C1.14516 17.8381 1.05356 16.2193 1.87819 14.6007C2.4585 13.44 3.37462 12.5848 3.95494 12.1572C3.83278 11.7602 3.6495 11.0883 3.55791 10.5997C-0.870564 13.8066 -0.412407 18.1436 0.931405 20.1898C1.93922 21.717 3.9855 22.6638 6.24553 22.6638C6.85631 22.6638 7.46709 22.6027 8.07797 22.4501C11.9872 21.6865 14.9497 19.3652 16.6295 15.914ZM22.0047 12.1268C19.6836 9.4085 16.263 7.91197 12.3537 7.91197H11.8651C11.5902 7.36222 11.0099 6.99565 10.3686 6.99565H10.3074C9.36075 7.02622 8.62781 7.82028 8.65828 8.76715C8.68884 9.68337 9.45234 10.4164 10.3686 10.4164H10.4296C11.1015 10.3858 11.6818 9.95825 11.9261 9.37794H12.4759C14.797 9.37794 16.9959 10.0498 18.9812 11.3632C20.5082 12.3711 21.6077 13.6844 22.2185 15.2726C22.7377 16.5553 22.7071 17.8076 22.1573 18.8766C21.3022 20.4953 19.8668 21.381 17.9733 21.381C16.7516 21.381 15.5911 21.0145 14.9802 20.7396C14.6443 21.045 14.0334 21.5337 13.6058 21.8392C14.9192 22.45 16.263 22.786 17.5457 22.786C20.4776 22.786 22.6461 21.1672 23.4707 19.5485C24.3563 17.777 24.2952 14.7228 22.0047 12.1268ZM6.48984 16.4331C6.5204 17.3494 7.28391 18.0823 8.20012 18.0823H8.26125C9.20803 18.0519 9.94097 17.2577 9.9104 16.3109C9.87994 15.3946 9.11634 14.6617 8.20012 14.6617H8.13909C8.07797 14.6617 7.98628 14.6617 7.92534 14.6922C6.67312 12.6153 6.15394 10.3553 6.33722 7.91187C6.45928 6.07934 7.07015 4.49112 8.13909 3.17778C9.02475 2.04771 10.735 1.49796 11.8957 1.4675C15.1329 1.40637 16.5072 5.4379 16.5989 7.05668C16.9959 7.14828 17.6678 7.36212 18.126 7.51484C17.7594 2.56709 14.7053 0.00152588 11.7735 0.00152588C9.02475 0.00152588 6.48984 1.98678 5.48194 4.91881C4.07709 8.82819 4.99331 12.5848 6.70359 15.5474C6.55097 15.7612 6.45928 16.0971 6.48984 16.4331Z" fill="#9C69EF"/>
</g>
<defs>
<clipPath id="clip0_120_76">
<rect width="24" height="22.8768" fill="white"/>
</clipPath>
</defs>
</svg>
