<svg width="24" height="24" viewBox="0 0 24 24" fill="none" xmlns="http://www.w3.org/2000/svg">
<path d="M20.6539 13.3407C19.8171 13.3451 19.0899 13.5466 18.4809 13.8445C18.2574 13.402 18.034 13.0077 17.9946 12.7186C17.9508 12.3812 17.8982 12.1753 17.9508 11.7722C18.0033 11.3692 18.2399 10.7952 18.2355 10.7514C18.2312 10.7076 18.183 10.5017 17.701 10.4973C17.2191 10.4929 16.8029 10.5893 16.7547 10.7164C16.7065 10.8434 16.6145 11.1326 16.5532 11.4305C16.4699 11.8686 15.5893 13.4327 15.0855 14.252C14.9234 13.9322 14.7832 13.6518 14.7525 13.4283C14.7087 13.091 14.6561 12.8851 14.7087 12.482C14.7613 12.0789 14.9979 11.505 14.9935 11.4612C14.9891 11.4174 14.9409 11.2115 14.459 11.2071C13.9771 11.2027 13.5608 11.2991 13.5126 11.4261C13.4645 11.5532 13.4119 11.8511 13.3111 12.1403C13.2103 12.4294 12.0406 15.0406 11.7339 15.7153C11.5762 16.0614 11.4404 16.3374 11.344 16.5258C11.344 16.5258 11.3396 16.5389 11.3265 16.5608C11.2432 16.723 11.195 16.8106 11.195 16.8106C11.195 16.8106 11.195 16.8106 11.195 16.815C11.1293 16.9332 11.0592 17.0428 11.0242 17.0428C10.9979 17.0428 10.9497 16.7273 11.0329 16.298C11.2082 15.3911 11.6244 13.9803 11.62 13.9322C11.62 13.9059 11.6988 13.6605 11.3484 13.5335C11.0066 13.4064 10.884 13.6167 10.8533 13.6167C10.8226 13.6167 10.8007 13.6912 10.8007 13.6912C10.8007 13.6912 11.1819 12.1052 10.0734 12.1052C9.38121 12.1052 8.42612 12.8631 7.95296 13.5466C7.65504 13.7087 7.01977 14.0548 6.34069 14.4272C6.0822 14.5718 5.81495 14.7164 5.56522 14.8522C5.5477 14.8347 5.53017 14.8128 5.51265 14.7952C4.17201 13.3626 1.69228 12.3506 1.79742 10.4272C1.83686 9.72624 2.07782 7.88615 6.55975 5.65176C10.2487 3.83358 13.1841 4.33741 13.6923 5.45461C14.4195 7.04935 12.1194 10.011 8.30783 10.4404C6.85328 10.6025 6.09096 10.0417 5.89819 9.83139C5.69666 9.61233 5.66599 9.59918 5.59151 9.643C5.46884 9.70871 5.5477 9.90587 5.59151 10.0198C5.70542 10.3177 6.1742 10.8434 6.96719 11.1019C7.66818 11.3297 9.37245 11.4568 11.436 10.6594C13.7449 9.76567 15.5499 7.28155 15.0198 5.2005C14.4896 3.08878 10.9847 2.39217 7.66818 3.57071C5.69666 4.27169 3.55865 5.37574 2.02086 6.81277C0.19392 8.52142 -0.0952368 10.0066 0.0230545 10.6288C0.448027 12.8369 3.49293 14.2739 4.7109 15.3385C4.64956 15.3736 4.59261 15.4042 4.54441 15.4305C3.93543 15.7328 1.61342 16.9464 1.0351 18.2301C0.377929 19.6846 1.14025 20.7273 1.64408 20.8675C3.20816 21.3013 4.81604 20.5214 5.67913 19.2334C6.54222 17.9453 6.43707 16.2717 6.03839 15.505C6.03401 15.4962 6.02963 15.4875 6.02086 15.4787C6.17859 15.3867 6.34069 15.2903 6.49841 15.1983C6.80947 15.0143 7.11615 14.8434 7.37902 14.7032C7.23006 15.1107 7.12054 15.597 7.06796 16.298C7.00224 17.1216 7.33959 18.1906 7.78209 18.6112C7.97924 18.7952 8.21144 18.7996 8.3604 18.7996C8.87738 18.7996 9.10958 18.3703 9.36807 17.8621C9.68351 17.2399 9.96829 16.517 9.96829 16.517C9.96829 16.517 9.61342 18.471 10.5773 18.471C10.9278 18.471 11.2826 18.0154 11.4404 17.7832C11.4404 17.7876 11.4404 17.7876 11.4404 17.7876C11.4404 17.7876 11.4491 17.7744 11.4666 17.7438C11.5017 17.6868 11.5236 17.6518 11.5236 17.6518C11.5236 17.6518 11.5236 17.6474 11.5236 17.643C11.6638 17.3977 11.9792 16.8412 12.448 15.9168C13.0526 14.7251 13.6353 13.2355 13.6353 13.2355C13.6353 13.2355 13.6879 13.5992 13.8675 14.2038C13.9727 14.5587 14.1917 14.9486 14.367 15.3254C14.2268 15.5225 14.1392 15.632 14.1392 15.632C14.1392 15.632 14.1392 15.632 14.1435 15.6364C14.0296 15.7854 13.907 15.9475 13.7711 16.1052C13.2936 16.6748 12.724 17.3276 12.6452 17.5159C12.5532 17.7394 12.5751 17.9015 12.7503 18.0329C12.8774 18.1293 13.1052 18.1424 13.3374 18.1293C13.7668 18.0986 14.0691 17.9935 14.218 17.9278C14.4502 17.8445 14.7218 17.7175 14.976 17.5291C15.4447 17.183 15.7295 16.6879 15.7032 16.0351C15.6901 15.6759 15.5718 15.3166 15.4272 14.9792C15.471 14.9179 15.5105 14.8566 15.5543 14.7952C16.2947 13.7131 16.8686 12.5258 16.8686 12.5258C16.8686 12.5258 16.9212 12.8894 17.1008 13.494C17.1884 13.8007 17.3681 14.1337 17.5258 14.4579C16.8292 15.0231 16.3998 15.6802 16.2465 16.1096C15.9705 16.907 16.1852 17.2662 16.5926 17.3495C16.7766 17.3889 17.0395 17.3013 17.2323 17.218C17.4776 17.1392 17.7668 17.0033 18.0428 16.8018C18.5116 16.4557 18.9628 15.9738 18.9365 15.321C18.9234 15.0231 18.8445 14.7295 18.735 14.4447C19.3265 14.1994 20.0888 14.0636 21.0614 14.1775C23.1468 14.4228 23.5587 15.724 23.4798 16.2717C23.4009 16.8193 22.9628 17.1173 22.8182 17.2093C22.6737 17.3013 22.6255 17.3319 22.6386 17.3976C22.6561 17.494 22.7262 17.4897 22.8489 17.4721C23.0198 17.4415 23.9442 17.0296 23.9836 16.022C24.0493 14.7339 22.8226 13.3276 20.6539 13.3407ZM4.56632 18.7646C3.8741 19.5181 2.91024 19.8029 2.49403 19.5619C2.04715 19.3035 2.2224 18.1906 3.07234 17.3933C3.58932 16.907 4.25526 16.4557 4.69775 16.1797C4.79852 16.1184 4.94748 16.0307 5.12711 15.9212C5.15778 15.9037 5.1753 15.8949 5.1753 15.8949C5.21035 15.873 5.2454 15.8511 5.28045 15.8292C5.59151 16.9683 5.29359 17.9716 4.56632 18.7646ZM9.60465 15.3385C9.36369 15.9256 8.85986 17.4283 8.55317 17.3451C8.29031 17.275 8.1282 16.1359 8.5006 15.0099C8.68899 14.4447 9.08768 13.77 9.31988 13.5072C9.69666 13.0866 10.1129 12.9464 10.2136 13.1173C10.3407 13.3407 9.75361 14.9705 9.60465 15.3385ZM13.7624 17.3276C13.6616 17.3801 13.5652 17.4152 13.5214 17.3889C13.4907 17.3714 13.5652 17.3013 13.5652 17.3013C13.5652 17.3013 14.0866 16.7405 14.2925 16.4864C14.4108 16.3374 14.551 16.1622 14.6999 15.965C14.6999 15.9825 14.6999 16.0044 14.6999 16.022C14.6999 16.6923 14.0515 17.1435 13.7624 17.3276ZM16.9694 16.5959C16.8949 16.5433 16.908 16.3681 17.1578 15.8204C17.2542 15.6058 17.482 15.2465 17.8719 14.9004C17.9157 15.0406 17.9464 15.1764 17.942 15.3035C17.9376 16.149 17.333 16.4645 16.9694 16.5959Z" fill="#CD6799"/>
</svg>
