<svg width="24" height="24" viewBox="0 0 24 24" fill="none" xmlns="http://www.w3.org/2000/svg">
<mask id="mask0_130_104" style="mask-type:luminance" maskUnits="userSpaceOnUse" x="0" y="5" width="24" height="15">
<path d="M0 5H24V19.4H0V5Z" fill="white"/>
</mask>
<g mask="url(#mask0_130_104)">
<path fill-rule="evenodd" clip-rule="evenodd" d="M12 5C8.8 5 6.8 6.6 6 9.8C7.2 8.2 8.6 7.6 10.2 8C11.1129 8.228 11.7653 8.89067 12.4876 9.62355C13.664 10.8178 15.0258 12.2 18 12.2C21.2 12.2 23.2 10.6 24 7.4C22.8 9 21.4 9.6 19.8 9.2C18.8871 8.972 18.2347 8.30933 17.5124 7.57644C16.336 6.38222 14.9742 5 12 5ZM6 12.2C2.8 12.2 0.8 13.8 0 17C1.2 15.4 2.6 14.8 4.2 15.2C5.11289 15.4284 5.76533 16.0907 6.48756 16.8236C7.664 18.0178 9.02578 19.4 12 19.4C15.2 19.4 17.2 17.8 18 14.6C16.8 16.2 15.4 16.8 13.8 16.4C12.8871 16.172 12.2347 15.5093 11.5124 14.7764C10.336 13.5822 8.97422 12.2 6 12.2Z" fill="#38BDF8"/>
</g>
</svg>
