<svg width="24" height="24" viewBox="0 0 24 24" fill="none" xmlns="http://www.w3.org/2000/svg">
<g clip-path="url(#clip0_131_8)">
<path d="M12 24C18.6274 24 24 18.6274 24 12C24 5.37258 18.6274 0 12 0C5.37258 0 0 5.37258 0 12C0 18.6274 5.37258 24 12 24Z" fill="url(#paint0_linear_131_8)"/>
<path d="M8.12289 12.8772L9.54659 16.8178C9.54659 16.8178 9.72459 17.1865 9.91519 17.1865C10.1058 17.1865 12.9407 14.2373 12.9407 14.2373L16.0932 8.14832L8.17369 11.86L8.12289 12.8772Z" fill="#C8DAEA"/>
<path d="M10.0106 13.8878L9.7373 16.7924C9.7373 16.7924 9.6229 17.6824 10.5127 16.7924C11.4025 15.9024 12.2542 15.2161 12.2542 15.2161" fill="#A9C6D8"/>
<path d="M8.14859 13.0178L5.21999 12.0636C5.21999 12.0636 4.86999 11.9216 4.98269 11.5996C5.00589 11.5332 5.05269 11.4767 5.19269 11.3796C5.84159 10.9273 17.2033 6.84359 17.2033 6.84359C17.2033 6.84359 17.5241 6.73549 17.7133 6.80739C17.7601 6.82188 17.8022 6.84854 17.8353 6.88465C17.8684 6.92076 17.8914 6.96501 17.9018 7.01289C17.9222 7.09746 17.9308 7.18446 17.9272 7.27139C17.9263 7.34659 17.9172 7.41629 17.9103 7.52559C17.8411 8.64209 15.7703 16.9749 15.7703 16.9749C15.7703 16.9749 15.6464 17.4625 15.2025 17.4792C15.0934 17.4827 14.9847 17.4642 14.8829 17.4249C14.7811 17.3855 14.6883 17.326 14.61 17.25C13.7389 16.5007 10.7281 14.4773 10.0628 14.0323C10.0478 14.0221 10.0351 14.0087 10.0257 13.9932C10.0163 13.9777 10.0103 13.9603 10.0082 13.9423C9.99888 13.8954 10.0499 13.8373 10.0499 13.8373C10.0499 13.8373 15.2925 9.17729 15.432 8.68809C15.4428 8.65019 15.402 8.63149 15.3472 8.64809C14.999 8.77619 8.96279 12.5881 8.29659 13.0088C8.24863 13.0233 8.19795 13.0264 8.14859 13.0178Z" fill="white"/>
</g>
<defs>
<linearGradient id="paint0_linear_131_8" x1="12" y1="24" x2="12" y2="0" gradientUnits="userSpaceOnUse">
<stop stop-color="#1D93D2"/>
<stop offset="1" stop-color="#38B0E3"/>
</linearGradient>
<clipPath id="clip0_131_8">
<rect width="24" height="24" fill="white"/>
</clipPath>
</defs>
</svg>
