<svg width="22" height="22" viewBox="0 0 22 22" fill="none" xmlns="http://www.w3.org/2000/svg">
<g clip-path="url(#clip0_123_89)">
<path d="M19.8516 0H2.14844C0.961888 0 0 0.961888 0 2.14844V19.8516C0 21.0381 0.961888 22 2.14844 22H19.8516C21.0381 22 22 21.0381 22 19.8516V2.14844C22 0.961888 21.0381 0 19.8516 0Z" fill="#3178C6"/>
<path d="M19.8516 0H2.14844C0.961888 0 0 0.961888 0 2.14844V19.8516C0 21.0381 0.961888 22 2.14844 22H19.8516C21.0381 22 22 21.0381 22 19.8516V2.14844C22 0.961888 21.0381 0 19.8516 0Z" fill="#3178C6"/>
<path fill-rule="evenodd" clip-rule="evenodd" d="M13.6185 17.5065V19.6576C13.9682 19.8368 14.3817 19.9712 14.8592 20.0609C15.3367 20.1505 15.8399 20.1953 16.3689 20.1953C16.8845 20.1953 17.3742 20.146 17.8383 20.0474C18.3023 19.9488 18.7092 19.7864 19.0588 19.5601C19.4085 19.3338 19.6854 19.038 19.8893 18.6728C20.0933 18.3075 20.1953 17.8561 20.1953 17.3183C20.1953 16.9284 20.137 16.5867 20.0205 16.2932C19.9039 15.9997 19.7358 15.7386 19.5161 15.5101C19.2964 15.2815 19.0331 15.0765 18.726 14.895C18.4189 14.7135 18.0725 14.5421 17.687 14.3808C17.4045 14.2642 17.1512 14.1511 16.9271 14.0413C16.7029 13.9315 16.5124 13.8195 16.3555 13.7052C16.1985 13.5909 16.0775 13.4699 15.9923 13.3422C15.9072 13.2145 15.8645 13.07 15.8645 12.9086C15.8645 12.7608 15.9026 12.6274 15.9789 12.5087C16.0551 12.3899 16.1627 12.288 16.3017 12.2028C16.4407 12.1177 16.611 12.0516 16.8127 12.0045C17.0145 11.9575 17.2386 11.934 17.4852 11.934C17.6645 11.934 17.8539 11.9474 18.0534 11.9743C18.253 12.0012 18.4536 12.0426 18.6554 12.0986C18.8571 12.1547 19.0532 12.2253 19.2438 12.3104C19.4343 12.3955 19.6103 12.4941 19.7716 12.6062V10.5963C19.4444 10.4708 19.0868 10.3778 18.6991 10.3173C18.3113 10.2568 17.8663 10.2266 17.3642 10.2266C16.8531 10.2266 16.3689 10.2815 15.9116 10.3913C15.4544 10.501 15.052 10.6724 14.7045 10.9055C14.3571 11.1385 14.0825 11.4354 13.8808 11.7962C13.679 12.1569 13.5781 12.5882 13.5781 13.0901C13.5781 13.731 13.7631 14.2777 14.1329 14.7303C14.5028 15.1829 15.0643 15.5661 15.8175 15.8798C16.1134 16.0008 16.3891 16.1195 16.6446 16.236C16.9002 16.3526 17.121 16.4736 17.307 16.599C17.4931 16.7245 17.6399 16.8612 17.7475 17.0091C17.8551 17.1569 17.9089 17.325 17.9089 17.5132C17.9089 17.6522 17.8753 17.781 17.808 17.8997C17.7408 18.0185 17.6388 18.1216 17.502 18.209C17.3653 18.2964 17.1949 18.3647 16.991 18.414C16.7869 18.4633 16.5483 18.4879 16.2748 18.4879C15.8085 18.4879 15.3468 18.4061 14.8894 18.2426C14.4322 18.079 14.0085 17.8337 13.6185 17.5065ZM10.0023 12.2066H12.7617V10.4414H5.07031V12.2066H7.81627V20.0664H10.0023V12.2066Z" fill="white"/>
</g>
<defs>
<clipPath id="clip0_123_89">
<rect width="22" height="22" fill="white"/>
</clipPath>
</defs>
</svg>
