<svg width="24" height="24" viewBox="0 0 24 24" fill="none" xmlns="http://www.w3.org/2000/svg">
<circle cx="12" cy="12" r="9" fill="white"/>
<path d="M12.2001 3C7.12726 3 3.00006 7.1272 3.00006 12.2C3.00006 13.784 3.40926 15.3416 4.18526 16.716L3.01486 20.892C2.97646 21.0292 3.01366 21.1764 3.11286 21.2784C3.18926 21.3572 3.29326 21.4 3.40006 21.4C3.43206 21.4 3.46446 21.396 3.49606 21.3884L7.85446 20.3088C9.18526 21.0232 10.6841 21.4 12.2001 21.4C17.2729 21.4 21.4001 17.2728 21.4001 12.2C21.4001 7.1272 17.2729 3 12.2001 3ZM16.8281 15.4464C16.6313 15.9912 15.6873 16.4884 15.2337 16.5552C14.8265 16.6148 14.3113 16.6404 13.7457 16.4628C13.4029 16.3548 12.9629 16.2116 12.3993 15.9712C10.0301 14.9608 8.48286 12.6052 8.36446 12.4496C8.24646 12.294 7.40006 11.1852 7.40006 10.0376C7.40006 8.89 8.01006 8.3256 8.22686 8.092C8.44366 7.8584 8.69926 7.8 8.85686 7.8C9.01446 7.8 9.17166 7.802 9.30966 7.8084C9.45486 7.8156 9.64966 7.7536 9.84126 8.2088C10.0381 8.676 10.5105 9.8236 10.5689 9.9408C10.6281 10.0576 10.6673 10.194 10.5889 10.3496C10.5105 10.5052 10.4713 10.6024 10.3529 10.7388C10.2345 10.8752 10.1049 11.0428 9.99846 11.1476C9.88006 11.264 9.75726 11.39 9.89486 11.6236C10.0325 11.8572 10.5065 12.6208 11.2089 13.2392C12.1109 14.0336 12.8721 14.28 13.1081 14.3968C13.3441 14.5136 13.4821 14.494 13.6197 14.3384C13.7573 14.1824 14.2101 13.6572 14.3673 13.424C14.5245 13.1908 14.6821 13.2292 14.8989 13.3072C15.1157 13.3848 16.2769 13.9488 16.5129 14.0656C16.7489 14.1824 16.9065 14.2408 16.9657 14.338C17.0249 14.4348 17.0249 14.902 16.8281 15.4464Z" fill="#52CE5F"/>
<g clip-path="url(#clip0_131_4)">
<path d="M12 2.79999C6.92719 2.79999 2.79999 6.92719 2.79999 12C2.79999 13.584 3.20919 15.1416 3.98519 16.516L2.81479 20.692C2.77639 20.8292 2.81359 20.9764 2.91279 21.0784C2.98919 21.1572 3.09319 21.2 3.19999 21.2C3.23199 21.2 3.26439 21.196 3.29599 21.1884L7.65439 20.1088C8.98519 20.8232 10.484 21.2 12 21.2C17.0728 21.2 21.2 17.0728 21.2 12C21.2 6.92719 17.0728 2.79999 12 2.79999ZM16.628 15.2464C16.4312 15.7912 15.4872 16.2884 15.0336 16.3552C14.6264 16.4148 14.1112 16.4404 13.5456 16.2628C13.2028 16.1548 12.7628 16.0116 12.1992 15.7712C9.82999 14.7608 8.28279 12.4052 8.16439 12.2496C8.04639 12.094 7.19999 10.9852 7.19999 9.83759C7.19999 8.68999 7.80999 8.12559 8.02679 7.89199C8.24359 7.65839 8.49919 7.59999 8.65679 7.59999C8.81439 7.59999 8.97159 7.60199 9.10959 7.60839C9.25479 7.61559 9.44959 7.55359 9.64119 8.00879C9.83799 8.47599 10.3104 9.62359 10.3688 9.74079C10.428 9.85759 10.4672 9.99399 10.3888 10.1496C10.3104 10.3052 10.2712 10.4024 10.1528 10.5388C10.0344 10.6752 9.90479 10.8428 9.79839 10.9476C9.67999 11.064 9.55719 11.19 9.69479 11.4236C9.83239 11.6572 10.3064 12.4208 11.0088 13.0392C11.9108 13.8336 12.672 14.08 12.908 14.1968C13.144 14.3136 13.282 14.294 13.4196 14.1384C13.5572 13.9824 14.01 13.4572 14.1672 13.224C14.3244 12.9908 14.482 13.0292 14.6988 13.1072C14.9156 13.1848 16.0768 13.7488 16.3128 13.8656C16.5488 13.9824 16.7064 14.0408 16.7656 14.138C16.8248 14.2348 16.8248 14.702 16.628 15.2464Z" fill="#52CE5F"/>
</g>
<defs>
<clipPath id="clip0_131_4">
<rect width="20" height="20" fill="white" transform="translate(2 2)"/>
</clipPath>
</defs>
</svg>
